Coordinates
version=1
nRows=11
nColumns=63
inDegrees=yes

Units are S.I. units (second, meters, Newtons, ...)
If the header above contains a line with 'inDegrees', this indicates whether rotational values are in degrees (yes) or radians (no).

endheader
time	pelvis_tilt	pelvis_list	pelvis_rotation	pelvis_tx	pelvis_ty	pelvis_tz	hip_flexion_r	hip_adduction_r	hip_rotation_r	knee_angle_r	knee_angle_r_beta	ankle_angle_r	subtalar_angle_r	mtp_angle_r	hip_flexion_l	hip_adduction_l	hip_rotation_l	knee_angle_l	knee_angle_l_beta	ankle_angle_l	subtalar_angle_l	mtp_angle_l	L5_S1_Flex_Ext	L5_S1_Lat_Bending	L5_S1_axial_rotation	L4_L5_Flex_Ext	L4_L5_Lat_Bending	L4_L5_axial_rotation	L3_L4_Flex_Ext	L3_L4_Lat_Bending	L3_L4_axial_rotation	L2_L3_Flex_Ext	L2_L3_Lat_Bending	L2_L3_axial_rotation	L1_L2_Flex_Ext	L1_L2_Lat_Bending	L1_L2_axial_rotation	L1_T12_Flex_Ext	L1_T12_Lat_Bending	L1_T12_axial_rotation	Abs_r3	Abs_r2	Abs_r1	Abs_t1	Abs_t2	neck_flexion	neck_bending	neck_rotation	arm_flex_r	arm_add_r	arm_rot_r	elbow_flex_r	pro_sup_r	wrist_flex_r	wrist_dev_r	arm_flex_l	arm_add_l	arm_rot_l	elbow_flex_l	pro_sup_l	wrist_flex_l	wrist_dev_l
      2.49152542	    -22.35312766	    -24.59108615	     73.32611545	      0.19010104	      0.42977675	      0.57030213	    149.15822576	     15.28115122	    -23.49777429	     89.62911245	      1.56432312	     -4.86858945	      7.86447311	      0.00000000	    140.15954659	    -44.53384306	    -45.54537606	    145.46488485	      2.53884119	     43.27274796	     16.11944362	      0.00000000	     -0.25889952	     -3.46003396	     -0.46284580	     -0.48080230	     -4.60184516	     -0.49177367	     -0.42534602	     -8.41272656	     -0.49177367	     -0.29589626	     -8.41272656	     -0.40499008	     -0.24041409	     -7.05570125	     -0.37606222	     -0.14793518	     -5.35959260	     -0.34713435	     -1.84929337	    -39.14059613	     -2.57420951	      0.00000000	      0.00000000	     27.40716374	     13.44207624	     16.41734329	     11.77365724	     -6.56595345	    163.85740060	      0.50549160	      0.82369377	     -4.37994714	    -23.76659564	    121.55005546	    -27.80602912	    111.20273418	     71.34769204	     76.00999352	      6.11065773	     13.38467299
      2.50847458	    -23.54193740	    -23.58341995	     73.03460834	      0.18545299	      0.42165205	      0.56874807	    149.10537658	     15.45800623	    -23.34234161	     90.29261762	      1.57590347	     -5.64662145	      8.15685575	      0.00000000	    139.94925731	    -44.88410418	    -47.77036650	    145.70454722	      2.54302408	     42.90751309	     13.86239560	      0.00000000	     -0.23768327	     -3.55434416	     -0.36843112	     -0.44140159	     -4.72727774	     -0.39145807	     -0.39048984	     -8.64203240	     -0.39145807	     -0.27164821	     -8.64203240	     -0.32237723	     -0.22071268	     -7.24801862	     -0.29935029	     -0.13581222	     -5.50567911	     -0.27632334	     -1.69774780	    -40.20745205	     -2.04910337	      0.00000000	      0.00000000	     27.08642082	     13.11206461	     14.30276374	     10.65615430	     -7.12035942	    172.33627019	      0.39811049	      0.89972126	     -3.35713092	    -23.58282468	    121.54564865	    -26.95603783	    111.58215068	     71.50547611	     74.70520859	      7.73818643	     12.46618592
      2.52542373	    -24.92914270	    -22.49047505	     73.08594386	      0.18085917	      0.41349575	      0.56733417	    149.04605997	     15.84858448	    -22.72024764	     91.11985438	      1.59034147	     -5.82894330	      7.91491816	      0.00000000	    139.04672113	    -45.29117638	    -50.84667740	    145.80945800	      2.54485512	     42.41436068	     11.41658089	      0.00000000	     -0.21371390	     -3.67375239	     -0.34462899	     -0.39688808	     -4.88609068	     -0.36616831	     -0.35111056	     -8.93236156	     -0.36616831	     -0.24425361	     -8.93236156	     -0.30155037	     -0.19845473	     -7.49151587	     -0.28001106	     -0.12211612	     -5.69064245	     -0.25847174	     -1.52653700	    -41.55822177	     -1.91672307	      0.00000000	      0.00000000	     26.68238646	     13.33735052	     12.39298627	      9.41412171	     -7.35559822	    180.94813416	      0.33388014	      0.98331238	     -3.43985202	    -23.32401848	    121.50293475	    -26.19191528	    112.33453522	     71.49713621	     73.92782931	      8.63361787	     11.64772728
      2.54237288	    -26.80503965	    -21.37603484	     73.43287503	      0.17684672	      0.40611639	      0.56589758	    148.94461927	     16.57411619	    -21.46090447	     92.03459692	      1.60630674	     -5.49638576	      7.09769693	      0.00000000	    136.97231121	    -45.82346851	    -54.91210085	    145.77800328	      2.54430613	     42.05799766	      9.67202560	      0.00000000	     -0.16505833	     -3.87530822	     -0.40351485	     -0.30652982	     -5.15415993	     -0.42873453	     -0.27117433	     -9.42242440	     -0.42873453	     -0.18864516	     -9.42242440	     -0.35307549	     -0.15327316	     -7.90252852	     -0.32785581	     -0.09431433	     -6.00285243	     -0.30263614	     -1.17899513	    -43.83826163	     -2.24422853	      0.00000000	      0.00000000	     26.09484406	     14.56354749	     10.05732422	      8.05097327	     -7.04957853	    188.00155144	      0.30062948	      1.03602652	     -3.85088466	    -23.14135490	    121.70256667	    -25.35371251	    114.07807690	     71.59351601	     73.92449019	      8.46001289	     10.72231711
      2.55932203	    -28.67805303	    -20.37950981	     73.82607569	      0.17347068	      0.39983351	      0.56460076	    148.81938518	     17.39977070	    -20.16804475	     92.88093050	      1.62107805	     -4.90345569	      5.86734495	      0.00000000	    134.80766129	    -46.28486905	    -58.92808505	    145.67291760	      2.54247204	     41.72630783	      7.97634589	      0.00000000	     -0.08314069	     -4.10839342	     -0.42614679	     -0.15440057	     -5.46416324	     -0.45278097	     -0.13659184	     -9.98914775	     -0.45278097	     -0.09502149	     -9.98914775	     -0.37287845	     -0.07720444	     -8.37783585	     -0.34624427	     -0.04750659	     -6.36390140	     -0.31961010	     -0.59386563	    -46.47496800	     -2.37010063	      0.00000000	      0.00000000	     25.18436180	     16.69500823	      6.43325766	      6.61963689	     -6.56838505	    190.35906991	      0.28420653	      1.02155000	     -2.15482120	    -23.47839383	    121.60965858	    -24.25522196	    116.17149036	     71.65401969	     75.22310294	      7.05343766	      9.63738034
      2.57627119	    -30.62326080	    -19.56441971	     74.24836567	      0.17117977	      0.39610934	      0.56391968	    148.52158714	     18.31984510	    -18.74432476	     93.57022640	      1.63310853	     -4.18598531	      4.21804141	      0.00000000	    131.83101199	    -46.73928034	    -63.01437543	    145.44125998	      2.53842885	     41.63421892	      7.55175753	      0.00000000	      0.01675350	     -4.37916050	     -0.44972150	      0.03111293	     -5.82428347	     -0.47782910	      0.02752433	    -10.64749084	     -0.47782910	      0.01914758	    -10.64749084	     -0.39350631	      0.01555730	     -8.92998410	     -0.36539872	      0.00957295	     -6.78331962	     -0.33729113	      0.11966860	    -49.53793943	     -2.50121607	      0.00000000	      0.00000000	     24.00553896	     19.50716250	      2.30707317	      5.36383475	     -5.83968265	    187.80137606	      0.29901838	      0.92221712	      1.30083861	    -23.94557193	    121.55495848	    -23.05579296	    119.14128724	     71.78680806	     77.69412646	      3.94151779	      7.68308666
      2.59322034	    -31.19281553	    -19.10659046	     74.73333129	      0.16859990	      0.39399583	      0.56396731	    148.18406352	     18.38947510	    -18.30198725	     94.17653213	      1.64369056	     -3.18420145	      2.43182345	      0.00000000	    130.57327099	    -46.51002674	    -65.12753322	    145.08987271	      2.53229599	     41.34189431	      6.56351529	      0.00000000	      0.12414270	     -4.48095343	     -0.39006484	      0.23054541	     -5.95966806	     -0.41444389	      0.20395404	    -10.89499016	     -0.41444389	      0.14188269	    -10.89499016	     -0.34130673	      0.11527891	     -9.13756023	     -0.31692768	      0.07093514	     -6.94099686	     -0.29254863	      0.88673889	    -50.68944137	     -2.16942361	      0.00000000	      0.00000000	     21.99929589	     21.46135642	     -1.83082473	      4.42177100	     -5.70798931	    181.99303630	      0.33554729	      0.78624941	      6.74528133	    -24.27033624	    120.54347965	    -22.27638155	    121.34884284	     72.01580798	     80.81118141	      0.16822492	      6.31288377
      2.61016949	    -30.90687484	    -18.89053099	     75.22099309	      0.16596642	      0.39358652	      0.56504969	    147.77231104	     17.94253019	    -18.40557732	     94.79392823	      1.65446616	     -1.88646789	      0.67466600	      0.00000000	    130.10450048	    -45.97042898	    -65.95229383	    144.65746217	      2.52474900	     40.96625653	      5.88863817	      0.00000000	      0.21985934	     -4.45743444	     -0.31506740	      0.40830077	     -5.92838781	     -0.33475911	      0.36120690	    -10.83780610	     -0.33475911	      0.25127723	    -10.83780610	     -0.27568397	      0.20416138	     -9.08960031	     -0.25599226	      0.12562762	     -6.90456595	     -0.23630055	      1.57043325	    -50.42338989	     -1.75231033	      0.00000000	      0.00000000	     19.42096554	     22.23919663	     -4.83314440	      3.79731532	     -6.01139002	    174.38228931	      0.42774315	      0.68717999	     12.87275012	    -24.42025994	    118.91717344	    -22.21713080	    122.79739729	     72.39215807	     83.44229612	     -3.97124712	      5.72206029
      2.62711864	    -30.16409660	    -18.85394382	     75.75721424	      0.16339194	      0.39462650	      0.56702199	    147.34179572	     17.19492842	    -18.65839210	     95.56359932	      1.66789945	     -0.32186991	     -0.74412224	      0.00000000	    129.90057246	    -45.25311145	    -66.03155023	    144.20638936	      2.51687630	     40.59237233	      5.82685319	      0.00000000	      0.29852183	     -4.36316072	     -0.27841380	      0.55438489	     -5.80300376	     -0.29581466	      0.49044151	    -10.60858898	     -0.29581466	      0.34118060	    -10.60858898	     -0.24361208	      0.27720737	     -8.89735735	     -0.22621121	      0.17057537	     -6.75853596	     -0.20881035	      2.13231157	    -49.35694673	     -1.54845404	      0.00000000	      0.00000000	     16.77585672	     22.05976927	     -6.97518995	      3.48252029	     -6.52359805	    166.57172756	      0.64449296	      0.62253358	     18.22202328	    -24.48571934	    116.86582379	    -22.84547147	    123.32082702	     72.84250772	     84.87847020	     -7.53645506	      6.20131540
      2.64406780	    -25.20947165	    -18.52768038	     76.11948764	      0.14895975	      0.38329611	      0.56981106	    148.13249767	     13.12535037	    -22.55570110	     97.39603485	      1.69988149	      0.51449903	     -1.37265536	      0.00000000	    137.03234311	    -42.14137196	    -62.34033510	    143.10552873	      2.49766265	     38.29269839	     -2.37860604	      0.00000000	      0.23199565	     -3.31514193	      0.11272372	      0.43083912	     -4.40913877	      0.11976895	      0.38114565	     -8.06043609	      0.11976895	      0.26514783	     -8.06043609	      0.09863325	      0.21543116	     -6.76023742	      0.09158802	      0.13256231	     -5.13515485	      0.08454279	      1.65712173	    -37.50154854	      0.62693549	      0.00000000	      0.00000000	     14.24800709	     12.82182453	      3.03195568	     -4.77038807	    -32.57408516	     65.70637562	     51.40460008	     56.63999792	     -9.74436360	     -1.58914807	    109.88106233	    -27.07678322	    114.67183058	     73.31977636	     86.14589398	     -9.93370888	      7.70853617
      2.66101695	    -24.85716703	    -18.69006645	     76.54990665	      0.14815409	      0.38656074	      0.57261835	    147.92197230	     12.71237343	    -22.21095564	     98.62638225	      1.72135510	      2.29677092	     -1.32616452	      0.00000000	    136.23772147	    -41.77702108	    -62.27809391	    142.75708882	      2.49158123	     38.18600940	     -0.97795760	      0.00000000	      0.29667323	     -3.30079840	      0.03779269	      0.55095185	     -4.39006188	      0.04015473	      0.48740445	     -8.02556124	      0.04015473	      0.33906783	     -8.02556124	      0.03306860	      0.27549076	     -6.73098810	      0.03070656	      0.16951908	     -5.11293673	      0.02834452	      2.11910720	    -37.33929170	      0.21019160	      0.00000000	      0.00000000	     13.31777134	     12.94129826	      0.59227893	     -5.58540421	    -31.84766961	     62.82918710	     51.29848988	     54.24401004	    -11.05237691	     -4.15922590	    107.41537155	    -28.33337108	    113.17021288	     73.84006819	     84.89461974	    -10.91633850	      9.68005783
